<?xml version="1.0" standalone="no"?>
<!DOCTYPE svg PUBLIC "-//W3C//DTD SVG 1.1//EN" "http://www.w3.org/Graphics/SVG/1.1/DTD/svg11.dtd" >
<svg xmlns="http://www.w3.org/2000/svg">
<metadata></metadata>
<defs>
<font id="senbold" horiz-adv-x="1150" >
<font-face units-per-em="2048" ascent="1638" descent="-410" />
<missing-glyph horiz-adv-x="600" />
<glyph horiz-adv-x="0" />
<glyph horiz-adv-x="682" />
<glyph unicode=" "  horiz-adv-x="600" />
<glyph unicode="&#x09;" horiz-adv-x="600" />
<glyph unicode="&#xa0;" horiz-adv-x="600" />
<glyph unicode="!" horiz-adv-x="640" d="M160 124q0 66 47 113t113 47t113 -47t47 -113t-47 -114t-113 -48t-113 48t-47 114zM208 460v880h224v-880h-224z" />
<glyph unicode="&#x22;" horiz-adv-x="904" d="M140 842v548h224v-548h-224zM540 842v548h224v-548h-224z" />
<glyph unicode="#" horiz-adv-x="1620" d="M160 310v200h274l84 276h-218v220h284l102 334h202l-102 -334h284l102 334h202l-102 -334h188v-220h-256l-86 -276h202v-200h-262l-96 -310h-196l94 310h-288l-96 -310h-196l94 310h-214zM632 510h288l84 276h-288z" />
<glyph unicode="$" horiz-adv-x="1124" d="M140 934q0 135 90.5 230.5t229.5 125.5v120h188v-112q160 -17 274 -92v-250q-169 110 -318 110q-79 0 -139.5 -34t-60.5 -98q0 -29 12.5 -51t42 -41t54 -30t73.5 -30l158 -64q248 -97 248 -310q0 -134 -96.5 -231.5t-247.5 -126.5v-154h-188v146q-160 22 -306 122v250 q190 -140 382 -140q80 0 132 32t52 90q0 76 -140 128l-198 72q-133 49 -187.5 135t-54.5 203z" />
<glyph unicode="%" horiz-adv-x="1648" d="M80 1064q0 129 85 217.5t219 88.5q133 0 218.5 -89t85.5 -217q0 -129 -85.5 -217.5t-218.5 -88.5q-134 0 -219 88t-85 218zM258 1064q0 -54 37 -93t91 -39t91 39t37 93t-37 93t-91 39t-91 -39t-37 -93zM334 44l816 1366l168 -84l-822 -1366zM960 276q0 129 85 217.5 t219 88.5q133 0 218.5 -89t85.5 -217q0 -129 -85.5 -217.5t-218.5 -88.5q-134 0 -219 88t-85 218zM1138 276q0 -54 37 -93t91 -39t91 39t37 93t-37 93t-91 39t-91 -39t-37 -93z" />
<glyph unicode="&#x26;" horiz-adv-x="1484" d="M90 340q0 68 24.5 126t71 103.5t96 78t116.5 66.5q-74 77 -113 149.5t-39 162.5q0 152 117.5 248t290.5 96q167 0 287.5 -97t120.5 -241q0 -41 -10 -78t-31.5 -68.5t-42.5 -56t-57 -52t-60 -43.5t-65 -42q-15 -9 -22 -14l-14 -10q56 -64 168 -184q77 112 134 216h276 q-121 -214 -248 -388q102 -107 304 -312h-318q-46 46 -130 134q-171 -164 -406 -164q-198 0 -324 103.5t-126 266.5zM378 360q0 -72 53.5 -113t134.5 -41q72 0 123.5 24.5t98.5 73.5q-142 154 -236 252q-88 -49 -131 -92.5t-43 -103.5zM524 1004q0 -70 96 -180 q79 44 121.5 88.5t42.5 101.5q0 53 -40 86.5t-92 33.5q-55 0 -91.5 -34t-36.5 -96z" />
<glyph unicode="'" horiz-adv-x="504" d="M140 792v548h224v-548h-224z" />
<glyph unicode="(" horiz-adv-x="766" d="M130 490q0 247 97 501.5t227 388.5h242q-122 -135 -212 -400t-90 -490q0 -236 89 -494.5t213 -395.5h-242q-132 137 -228 384t-96 506z" />
<glyph unicode=")" horiz-adv-x="806" d="M110 -400q124 137 213 395.5t89 494.5q0 225 -90 490t-212 400h242q130 -134 227 -388.5t97 -501.5q0 -259 -96 -506t-228 -384h-242z" />
<glyph unicode="*" horiz-adv-x="992" d="M150 1102l64 186l196 -82l-12 226h196l-10 -226l196 82l62 -186l-204 -60l144 -180l-158 -116l-128 196l-126 -196l-160 116l146 180z" />
<glyph unicode="+" horiz-adv-x="1100" d="M160 506v240h270v270h240v-270h270v-240h-270v-272h-240v272h-270z" />
<glyph unicode="," horiz-adv-x="566" d="M66 -298l160 528l224 -56l-200 -504z" />
<glyph unicode="-" horiz-adv-x="842" d="M120 396v240h602v-240h-602z" />
<glyph unicode="." horiz-adv-x="552" d="M116 124q0 66 47 113t113 47t113 -47t47 -113t-47 -114t-113 -48t-113 48t-47 114z" />
<glyph unicode="/" horiz-adv-x="888" d="M80 -400l526 1810h202l-532 -1810h-196z" />
<glyph unicode="0" d="M62 670q0 146 33 271.5t95.5 222t162.5 151.5t225 55t225 -55t162.5 -151.5t95.5 -222t33 -271.5t-33 -271.5t-95.5 -222t-162.5 -151.5t-225 -55t-225 55t-162.5 151.5t-95.5 222t-33 271.5zM340 670q0 -133 25.5 -234t80 -161.5t132.5 -60.5q116 0 178 126.5t62 329.5 q0 133 -26 234.5t-81 162.5t-133 61t-132.5 -61t-80 -162.5t-25.5 -234.5z" />
<glyph unicode="1" d="M184 0v246h274v700q-91 -75 -262 -116v270q102 30 197 94t157 146h184v-1094h276v-246h-826z" />
<glyph unicode="2" d="M144 0v112q303 327 361 393q172 198 211 305q16 43 16 82q0 101 -65.5 158.5t-168.5 57.5q-86 0 -174 -45.5t-150 -110.5v284q65 57 165.5 95.5t208.5 38.5q206 0 333 -111.5t127 -294.5q0 -49 -9 -96t-20.5 -84.5t-40 -85.5t-48.5 -78.5t-67 -87t-74.5 -87t-91.5 -101.5 t-99 -110h460v-234h-874z" />
<glyph unicode="3" d="M158 82v262q63 -44 95.5 -64t96 -42t126.5 -22q107 0 174.5 50t67.5 142q0 80 -73.5 124t-176.5 44h-110v216h110q250 0 250 146q0 85 -73 135.5t-177 50.5q-82 0 -147 -32t-127 -94v260q123 112 314 112q212 0 349 -109t137 -277q0 -125 -78.5 -204.5t-183.5 -99.5 q49 -11 93.5 -35t83.5 -61.5t62 -92t23 -119.5q0 -174 -140.5 -288t-347.5 -114q-103 0 -196.5 32t-151.5 80z" />
<glyph unicode="4" d="M76 296v164q407 448 646 880h174v-818h182v-226h-182v-296h-256v296h-564zM412 522h228v314q-136 -204 -228 -314z" />
<glyph unicode="5" d="M140 98v248q3 -2 40 -24.5t46 -27.5t41.5 -23t50 -23t47 -15.5t56 -13.5t55.5 -3q124 0 200 52.5t76 151.5q0 91 -78 147.5t-198 56.5q-104 0 -258 -50v766h730v-248h-486v-282q82 32 184 32q156 0 269 -109.5t113 -280.5q0 -113 -40.5 -205.5t-110.5 -152.5t-163 -92 t-200 -32q-214 0 -374 128z" />
<glyph unicode="6" d="M88 486q0 78 19.5 159.5t48 148.5t75 140.5t84 124.5t93 113t85 92.5t75.5 75.5h350q-22 -21 -84.5 -79.5t-96.5 -91t-90 -89.5t-90.5 -98.5t-71 -93t-57.5 -96.5q105 102 224 102q181 0 303.5 -123.5t122.5 -306.5q0 -133 -62 -246t-174.5 -180.5t-251.5 -67.5 q-135 0 -248.5 61.5t-183.5 181t-70 273.5zM366 442q0 -96 65 -161t155 -65t153 65t63 161q0 90 -63 151t-153 61t-155 -61t-65 -151z" />
<glyph unicode="7" d="M124 1092v248h950v-114q-205 -346 -276 -487q-147 -293 -180 -548q-12 -93 -12 -191h-320q0 58 7.5 118.5t17 111.5t32 116.5t37 108t48.5 112.5t51 104.5t59.5 109.5t58 102t63 107.5t60.5 101.5h-596z" />
<glyph unicode="8" d="M114 390q0 108 65 192.5t159 123.5q-184 98 -184 298q0 164 121 265t301 101t301 -101t121 -265q0 -200 -184 -298q94 -39 159 -123.5t65 -192.5q0 -181 -132 -300.5t-330 -119.5t-330 119.5t-132 300.5zM374 400q0 -85 57.5 -141.5t144.5 -56.5q86 0 144 56.5t58 141.5 q0 83 -60.5 138.5t-141.5 55.5q-82 0 -142 -55.5t-60 -138.5zM400 964q0 -76 52 -124t124 -48q70 0 123 48.5t53 123.5t-53 124.5t-123 49.5q-71 0 -123.5 -49t-52.5 -125z" />
<glyph unicode="9" d="M76 876q0 134 62 247t174.5 180t251.5 67q135 0 248.5 -61t183.5 -180t70 -273q0 -108 -37 -221.5t-85.5 -198.5t-124 -180t-122.5 -144.5t-111 -111.5h-350q24 23 101.5 95.5t119 114t102 106t101.5 121.5t66 111q-105 -102 -224 -102q-181 0 -303.5 124t-122.5 306z M354 898q0 -89 63.5 -150.5t152.5 -61.5q90 0 155 61.5t65 150.5q0 97 -65 161.5t-155 64.5t-153 -64t-63 -162z" />
<glyph unicode=":" horiz-adv-x="640" d="M160 124q0 66 47 113t113 47t113 -47t47 -113t-47 -114t-113 -48t-113 48t-47 114zM160 924q0 66 47 113t113 47t113 -47t47 -113t-47 -113t-113 -47t-113 47t-47 113z" />
<glyph unicode=";" horiz-adv-x="728" d="M126 -298l160 528l224 -56l-200 -504zM236 924q0 66 47 113t113 47t113 -47t47 -113t-47 -113t-113 -47t-113 47t-47 113z" />
<glyph unicode="&#x3c;" horiz-adv-x="1100" d="M120 552v102l870 532v-276l-552 -304l552 -330v-276z" />
<glyph unicode="=" horiz-adv-x="1102" d="M160 302v240h782v-240h-782zM160 702v240h782v-240h-782z" />
<glyph unicode="&#x3e;" horiz-adv-x="1100" d="M100 0v276l552 330l-552 304v276l870 -532v-102z" />
<glyph unicode="?" horiz-adv-x="1170" d="M160 958v264q65 67 165.5 107.5t224.5 40.5q122 0 225.5 -48t169 -143t65.5 -219q0 -52 -20.5 -100t-52.5 -83.5t-71 -68.5t-78 -61.5t-71 -55t-51 -55.5t-18 -58l2 -42h-254v80q0 40 36 83t87.5 81.5t103 77.5t87.5 85t36 91q0 83 -65.5 134.5t-170.5 51.5 q-211 0 -350 -162zM372 124q0 66 47 113t113 47t113 -47t47 -113t-47 -114t-113 -48t-113 48t-47 114z" />
<glyph unicode="@" horiz-adv-x="1618" d="M86 486q0 156 57.5 294t155 235t230.5 153t281 56q149 0 281 -47t230.5 -132t155.5 -212.5t57 -280.5q0 -180 -110.5 -302t-277.5 -122q-82 0 -141.5 36.5t-76.5 89.5q-103 -126 -262 -126q-143 0 -221.5 101.5t-56.5 262.5q16 117 75.5 206.5t146 135.5t184.5 46 q64 0 117.5 -27t84.5 -71l16 78h176l-90 -382q-26 -88 -10 -138t82 -50q64 0 116 66t52 196q0 122 -41 217t-113 154t-167 89t-207 30q-109 0 -205.5 -40.5t-168 -112t-113 -176t-41.5 -227.5q0 -244 146.5 -382t381.5 -138q126 0 214.5 22t187.5 74l82 -148 q-244 -128 -484 -128q-152 0 -285 50t-230 139.5t-153 221.5t-56 289zM582 492q-19 -89 17 -142.5t111 -53.5q86 0 143 47.5t81 156.5l32 134q-65 62 -158 62q-87 0 -147 -53.5t-79 -150.5z" />
<glyph unicode="A" horiz-adv-x="1426" d="M20 0l624 1350h138l624 -1350h-326l-102 250h-530l-102 -250h-326zM546 486h336l-168 410z" />
<glyph unicode="B" horiz-adv-x="1394" d="M200 30v1310h588q116 0 214.5 -44.5t160 -130.5t61.5 -195q0 -94 -47.5 -169t-138.5 -113q39 -11 72.5 -26.5t67 -41.5t57 -58.5t38.5 -80t15 -103.5q0 -171 -154 -287.5t-394 -116.5q-127 0 -283.5 17t-256.5 39zM478 250q101 -24 246 -24q119 0 196.5 49.5t77.5 132.5 q0 79 -77 117.5t-197 38.5h-246v-314zM478 770h252q98 0 159 43t61 115q0 77 -60.5 119.5t-159.5 42.5h-252v-320z" />
<glyph unicode="C" horiz-adv-x="1286" d="M90 670q0 152 57 283.5t153 222t225.5 142.5t272.5 52q228 0 378 -130v-280q-51 39 -77 56.5t-75 43.5t-101.5 37t-116.5 11q-181 0 -306.5 -126t-125.5 -312t125.5 -311t306.5 -125q123 0 213 37t177 105v-270q-153 -136 -398 -136q-143 0 -272.5 52t-225.5 142.5 t-153 222t-57 283.5z" />
<glyph unicode="D" horiz-adv-x="1518" d="M200 28v1312h486q118 0 227 -27t203 -82t163.5 -133t109 -186t39.5 -234q0 -148 -48.5 -277t-136 -223.5t-219 -149t-290.5 -54.5q-261 0 -534 54zM478 258q110 -22 248 -22q201 0 309.5 119t108.5 313t-132.5 303t-335.5 109h-198v-822z" />
<glyph unicode="E" horiz-adv-x="1308" d="M200 0v1340h948v-240h-670v-304h592v-226h-592v-324h670v-246h-948z" />
<glyph unicode="F" horiz-adv-x="1270" d="M200 0v1340h914v-250h-636v-338h526v-250h-526v-502h-278z" />
<glyph unicode="G" horiz-adv-x="1426" d="M90 670q0 152 57 283.5t153 222t225.5 142.5t272.5 52q228 0 378 -130v-280q-51 39 -77 56.5t-75 43.5t-101.5 37t-116.5 11q-181 0 -306.5 -126t-125.5 -312t125.5 -311t306.5 -125q163 0 256 88l2 190h-168v200h426v-532q-89 -92 -228.5 -151t-295.5 -59 q-143 0 -272.5 52t-225.5 142.5t-153 222t-57 283.5z" />
<glyph unicode="H" horiz-adv-x="1576" d="M200 0v1340h278v-546h622v546h276v-1340h-276v544h-622v-544h-278z" />
<glyph unicode="I" horiz-adv-x="1110" d="M190 0v250h226v840h-226v250h730v-250h-226v-840h226v-250h-730z" />
<glyph unicode="J" horiz-adv-x="700" d="M-86 -262q318 93 318 332v1274h278v-1262q0 -459 -488 -592z" />
<glyph unicode="K" horiz-adv-x="1430" d="M200 0v1340h278v-600l510 600h352l-524 -584l584 -756h-364l-412 544l-146 -164v-380h-278z" />
<glyph unicode="L" horiz-adv-x="1274" d="M200 0v1340h278v-1090h670v-250h-948z" />
<glyph unicode="M" horiz-adv-x="1728" d="M200 0v1350h122l544 -578l540 578h122v-1350h-278v840l-342 -380h-82l-348 380v-840h-278z" />
<glyph unicode="N" horiz-adv-x="1572" d="M200 0v1350h102l792 -830v820h278v-1350h-102l-792 818v-808h-278z" />
<glyph unicode="O" horiz-adv-x="1582" d="M90 670q0 202 95.5 363.5t255.5 249t351 87.5t350.5 -87.5t254.5 -249t95 -363.5t-95 -363.5t-254.5 -249t-350.5 -87.5t-351 87.5t-255.5 249t-95.5 363.5zM374 670q0 -188 119 -312t299 -124t298 124t118 312t-118 313t-298 125t-299 -125t-119 -313z" />
<glyph unicode="P" horiz-adv-x="1330" d="M190 0v1340h554q127 0 241.5 -56.5t189.5 -168t75 -253.5q0 -133 -69 -240t-183 -164.5t-248 -57.5q-158 0 -282 60v-460h-278zM468 684q110 -44 236 -44q118 0 190 63.5t72 158.5q0 101 -77.5 159.5t-190.5 58.5h-230v-396z" />
<glyph unicode="Q" horiz-adv-x="1646" d="M90 670q0 202 95.5 363.5t255.5 249t351 87.5t350.5 -87.5t254.5 -249t95 -363.5q0 -231 -121.5 -404.5t-320.5 -249.5q113 -46 238.5 -71t231.5 -25v-246q-179 0 -382.5 80.5t-345.5 215.5q-191 0 -351 87.5t-255.5 249t-95.5 363.5zM374 670q0 -188 119 -312t299 -124 t298 124t118 312t-118 313t-298 125t-299 -125t-119 -313z" />
<glyph unicode="R" horiz-adv-x="1364" d="M200 0v1340h544q96 0 185 -27t161.5 -78.5t116 -136.5t43.5 -192q0 -166 -117.5 -269t-290.5 -119l502 -518h-366l-500 550v-550h-278zM478 742q112 -34 226 -34q121 0 191.5 49.5t70.5 138.5q0 93 -71.5 138.5t-186.5 45.5h-230v-338z" />
<glyph unicode="S" horiz-adv-x="1096" d="M90 960q0 119 67 213t175 143.5t234 49.5q211 0 374 -106v-274q-91 57 -169 88.5t-171 31.5q-88 0 -154 -37.5t-66 -108.5q0 -26 11.5 -47.5t25 -35.5t46.5 -32t51.5 -26t65.5 -27l164 -68q272 -116 272 -342q0 -116 -69 -210.5t-185 -146t-254 -51.5q-110 0 -218 39 t-196 101v274q210 -152 420 -152q88 0 146 34.5t58 97.5q0 84 -156 140l-206 80q-146 56 -206 150t-60 222z" />
<glyph unicode="T" horiz-adv-x="1242" d="M56 1090v250h1132v-250h-428v-1084h-276v1084h-428z" />
<glyph unicode="U" horiz-adv-x="1518" d="M180 530v814h278v-798q0 -150 82 -229q79 -77 213 -77h7q139 2 220.5 79.5t81.5 226.5v798h276v-814q0 -171 -77.5 -299t-207.5 -193.5t-293 -65.5t-293.5 65.5t-208.5 194t-78 298.5z" />
<glyph unicode="V" horiz-adv-x="1426" d="M20 1340h326l366 -886l368 886h326l-624 -1350h-138z" />
<glyph unicode="W" horiz-adv-x="1918" d="M20 1340h316l248 -846l282 846h186l278 -846l252 846h316l-452 -1340h-192l-298 862l-298 -862h-192z" />
<glyph unicode="X" horiz-adv-x="1370" d="M20 0l466 672l-466 668h350l314 -486l316 486h350l-478 -678l478 -662h-350l-324 468l-316 -468h-340z" />
<glyph unicode="Y" horiz-adv-x="1362" d="M20 1340h326l334 -564l336 564h326l-518 -834v-506h-284v492z" />
<glyph unicode="Z" horiz-adv-x="1348" d="M128 0v72l644 1018h-644v250h1094v-72l-656 -1018h656v-250h-1094z" />
<glyph unicode="[" horiz-adv-x="798" d="M150 -400v1780h578v-220h-324v-1340h324v-220h-578z" />
<glyph unicode="\" horiz-adv-x="778" d="M-26 1340h204l626 -1740h-196z" />
<glyph unicode="]" horiz-adv-x="808" d="M80 -180h324v1340h-324v220h578v-1780h-578v220z" />
<glyph unicode="^" horiz-adv-x="1204" d="M100 640l422 700h142l442 -700h-256l-260 416l-234 -416h-256z" />
<glyph unicode="_" horiz-adv-x="980" d="M0 -22h980v-240h-980v240z" />
<glyph unicode="`" horiz-adv-x="728" d="M242 1296l12 134l214 -150l-12 -134z" />
<glyph unicode="a" horiz-adv-x="1272" d="M86 498q0 124 37 226.5t100.5 170t149 104.5t183.5 37q82 0 165.5 -38.5t140.5 -101.5v114h254v-1010h-254v170q-49 -87 -133.5 -143.5t-190.5 -56.5q-91 0 -172.5 36t-144 101.5t-99 166.5t-36.5 224zM350 498q0 -116 70 -195t182 -79q106 0 183.5 81.5t76.5 212.5v144 q-119 126 -254 126q-115 0 -186.5 -85.5t-71.5 -204.5z" />
<glyph unicode="b" horiz-adv-x="1272" d="M156 0v1440h254v-600q48 87 132 141.5t192 54.5q92 0 173 -35t143.5 -99.5t99 -165.5t36.5 -224t-37 -226t-100.5 -171.5t-149.5 -106.5t-183 -38q-81 0 -164.5 40t-141.5 104v-114h-254zM410 348q123 -130 254 -130q114 0 186 88t72 206q0 116 -70 193t-182 77 q-106 0 -183.5 -79.5t-76.5 -208.5v-146z" />
<glyph unicode="c" horiz-adv-x="984" d="M86 500q0 105 40.5 203t110 171.5t169 117.5t210.5 44q169 0 298 -106v-234q-126 90 -276 90q-117 0 -199.5 -82t-82.5 -204q0 -123 79.5 -203.5t202.5 -80.5q153 0 276 88v-232q-119 -102 -298 -102q-111 0 -210.5 43t-169 115t-110 169.5t-40.5 202.5z" />
<glyph unicode="d" horiz-adv-x="1272" d="M86 498q0 124 37 226.5t100.5 170t149 104.5t183.5 37q82 0 165.5 -38.5t140.5 -101.5v544h254v-1440h-254v170q-49 -87 -133.5 -143.5t-190.5 -56.5q-91 0 -172.5 36t-144 101.5t-99 166.5t-36.5 224zM350 498q0 -116 70 -195t182 -79q106 0 183.5 81.5t76.5 212.5v144 q-117 124 -254 124q-115 0 -186.5 -85t-71.5 -203z" />
<glyph unicode="e" d="M86 494q0 146 65.5 270t183.5 198t263 74q220 0 348 -139t128 -363v-106h-732q21 -104 101 -166t195 -62q165 0 308 92v-230q-123 -92 -318 -92q-148 0 -272 67t-197 187.5t-73 269.5zM346 594h484q-7 104 -76 162t-162 58q-95 0 -159 -59t-87 -161z" />
<glyph unicode="f" horiz-adv-x="802" d="M78 798v212h154v90q0 168 103 269t251 101q121 0 196 -52v-212q-63 38 -141 38h-11q-65 -2 -104.5 -41t-39.5 -119v-74h262v-212h-262v-798h-254v798h-154z" />
<glyph unicode="g" horiz-adv-x="1272" d="M86 498q0 124 37 226.5t100.5 170t149 104.5t183.5 37q82 0 165.5 -38.5t140.5 -101.5v114h254v-984q0 -125 -46 -227.5t-123.5 -169t-178.5 -103t-214 -36.5q-123 0 -217 28.5t-181 79.5v240q1 -1 39 -19.5t48 -23t46 -20t57.5 -21t55.5 -14.5t67.5 -12.5t68.5 -3.5 q137 0 230.5 76.5t93.5 193.5v176q-49 -87 -133.5 -143.5t-190.5 -56.5q-91 0 -172.5 36t-144 101.5t-99 166.5t-36.5 224zM350 498q0 -116 70 -194t182 -78q106 0 183.5 80.5t76.5 211.5v144q-117 124 -254 124q-115 0 -186.5 -85t-71.5 -203z" />
<glyph unicode="h" horiz-adv-x="1214" d="M156 0v1440h254v-574q54 71 133 120.5t173 49.5q161 0 261.5 -108t100.5 -308v-620h-254l-2 586q0 100 -48.5 151t-135.5 51q-121 0 -228 -148v-640h-254z" />
<glyph unicode="i" horiz-adv-x="662" d="M94 794v216h416v-1010h-254v794h-162zM194 1364q0 71 51 121.5t123 50.5t124 -51t52 -121q0 -69 -52 -120.5t-124 -51.5t-123 51t-51 121z" />
<glyph unicode="j" horiz-adv-x="672" d="M26 -290q110 52 165 121t55 171v792h-162v216h416v-998q0 -393 -362 -522zM180 1364q0 71 51.5 121.5t124.5 50.5q71 0 123.5 -51t52.5 -121q0 -69 -52.5 -120.5t-123.5 -51.5q-73 0 -124.5 51t-51.5 121z" />
<glyph unicode="k" horiz-adv-x="1190" d="M156 0v1440h254v-880l412 450h318l-434 -436l474 -574h-330l-308 408l-132 -132v-276h-254z" />
<glyph unicode="l" horiz-adv-x="564" d="M156 0v1440h254v-1440h-254z" />
<glyph unicode="m" horiz-adv-x="1846" d="M156 0v1010h254v-126q57 70 121.5 111t156.5 41q109 0 194.5 -50t131.5 -146q145 196 326 196q162 0 267 -108.5t105 -307.5v-620h-254l-2 586q0 99 -52 150.5t-140 51.5q-61 0 -108 -36t-96 -102v-650h-254l-2 586q0 99 -51 150.5t-139 51.5q-106 0 -204 -130v-658h-254 z" />
<glyph unicode="n" horiz-adv-x="1214" d="M156 0v1010h254v-144q54 71 133 120.5t173 49.5q161 0 261.5 -108t100.5 -308v-620h-254l-2 586q0 100 -48.5 151t-135.5 51q-121 0 -228 -148v-640h-254z" />
<glyph unicode="o" horiz-adv-x="1252" d="M86 502q0 147 73.5 270.5t197.5 193.5t269 70t269.5 -70t198.5 -193.5t74 -270.5q0 -146 -74 -269t-198.5 -193t-269.5 -70t-269 70t-197.5 193t-73.5 269zM356 502q0 -133 78.5 -209.5t191.5 -76.5q114 0 193 77t79 209q0 133 -79.5 210.5t-192.5 77.5t-191.5 -77.5 t-78.5 -210.5z" />
<glyph unicode="p" horiz-adv-x="1272" d="M156 -480v1490h254v-170q48 87 132 141.5t192 54.5q92 0 173 -35t143.5 -99.5t99 -165.5t36.5 -224t-37 -226t-100.5 -171.5t-149.5 -106.5t-183 -38q-81 0 -164.5 40t-141.5 104v-594h-254zM410 348q123 -130 254 -130q114 0 186 88t72 206q0 116 -70 193t-182 77 q-106 0 -183.5 -79.5t-76.5 -208.5v-146z" />
<glyph unicode="q" horiz-adv-x="1272" d="M86 498q0 124 37 226.5t100.5 170t149 104.5t183.5 37q82 0 165.5 -38.5t140.5 -101.5v114h254v-1490h-254v650q-49 -87 -133.5 -143.5t-190.5 -56.5q-91 0 -172.5 36t-144 101.5t-99 166.5t-36.5 224zM350 498q0 -116 70 -194t182 -78q106 0 183.5 80.5t76.5 211.5v144 q-117 124 -254 124q-115 0 -186.5 -85t-71.5 -203z" />
<glyph unicode="r" horiz-adv-x="854" d="M156 0v1010h254v-190q122 210 284 210q64 0 120 -28v-290q-72 50 -156 50q-81 0 -139 -51.5t-109 -146.5v-564h-254z" />
<glyph unicode="s" horiz-adv-x="884" d="M88 72v222q60 -41 150 -72.5t160 -31.5q76 0 117 27t41 77q0 36 -30.5 57.5t-103.5 46.5l-124 44q-111 37 -157.5 105t-46.5 169q0 142 108.5 231t279.5 89q91 0 171.5 -26.5t126.5 -65.5v-224q-136 92 -260 92q-70 0 -113 -31t-43 -77q0 -35 26 -60.5t90 -45.5l114 -38 q230 -68 230 -266q0 -138 -114 -231t-278 -93q-96 0 -192.5 30.5t-151.5 71.5z" />
<glyph unicode="t" horiz-adv-x="916" d="M86 798v130q100 36 179.5 130.5t126.5 245.5h130v-294h280v-212h-280v-436q0 -69 32 -107.5t92 -38.5q90 0 166 46v-202q-90 -90 -238 -90q-137 0 -221.5 88t-84.5 238v502h-182z" />
<glyph unicode="u" horiz-adv-x="1182" d="M136 408v602h256l2 -556q0 -114 53.5 -174t144.5 -60t144.5 60t53.5 174v556h258v-602q0 -199 -128 -316.5t-328 -117.5t-328 117.5t-128 316.5z" />
<glyph unicode="v" horiz-adv-x="1152" d="M20 1010h296l254 -626l266 626h296l-478 -1010h-162z" />
<glyph unicode="w" horiz-adv-x="1580" d="M20 1010h276l186 -598l218 598h182l216 -598l186 598h276l-350 -1010h-184l-236 654l-236 -654h-186z" />
<glyph unicode="x" horiz-adv-x="1192" d="M20 0l416 516l-402 494h300l262 -316l262 316h300l-402 -494l416 -516h-318l-258 344l-258 -344h-318z" />
<glyph unicode="y" horiz-adv-x="1194" d="M20 1010h296l288 -644l280 644h290l-734 -1490h-288l304 554z" />
<glyph unicode="z" horiz-adv-x="1114" d="M106 0v64l500 730h-470v216h858v-62l-522 -730h542v-218h-908z" />
<glyph unicode="{" horiz-adv-x="928" d="M160 370v240q91 0 120.5 35t29.5 129v242q0 154 97.5 259t252.5 105h188v-220h-88q-50 0 -86 -12.5t-57 -32.5t-33 -53.5t-16 -68t-4 -83.5v-230q0 -61 -35 -110t-95 -80q60 -31 95 -80t35 -110v-230q0 -49 4 -83.5t16 -68t33 -53.5t57 -32.5t86 -12.5h88v-220h-188 q-155 0 -252.5 105t-97.5 259v242q0 94 -29.5 129t-120.5 35z" />
<glyph unicode="|" horiz-adv-x="520" d="M160 -400v1810h200v-1810h-200z" />
<glyph unicode="}" horiz-adv-x="928" d="M80 -180h88q50 0 86 12.5t57 32.5t33 53.5t16 68t4 83.5v230q0 61 35 110t95 80q-60 31 -95 80t-35 110v230q0 49 -4 83.5t-16 68t-33 53.5t-57 32.5t-86 12.5h-88v220h188q155 0 252.5 -105t97.5 -259v-242q0 -94 29.5 -129t120.5 -35v-240q-91 0 -120.5 -35t-29.5 -129 v-242q0 -154 -97.5 -259t-252.5 -105h-188v220z" />
<glyph unicode="~" horiz-adv-x="1138" d="M120 564q0 135 79 222.5t203 87.5q59 0 110.5 -19.5t80.5 -42.5t64.5 -42.5t68.5 -19.5q42 0 65 32t23 80h204q0 -135 -79 -222.5t-203 -87.5q-59 0 -110.5 19.5t-80.5 42.5t-64.5 42.5t-68.5 19.5q-40 0 -64 -32.5t-24 -79.5h-204z" />
<glyph unicode="&#xa1;" horiz-adv-x="582" d="M160 1198q0 66 47 113t113 47t113 -47t47 -113t-47 -113t-113 -47t-113 47t-47 113zM208 -20v882h224v-882h-224z" />
<glyph unicode="&#xa2;" horiz-adv-x="984" d="M86 500q0 190 121 340t309 186v134h190v-132q114 -21 208 -98v-234q-100 71 -208 86v-562q112 15 208 84v-232q-86 -74 -208 -94v-138h-190v140q-188 34 -309 182t-121 338zM356 500q0 -89 43 -157.5t117 -100.5v516q-72 -34 -116 -102.5t-44 -155.5z" />
<glyph unicode="&#xa3;" horiz-adv-x="1092" d="M160 0v206q73 25 117.5 109.5t44.5 182.5v60h-160v210h160v130q0 111 37.5 201t100.5 146t141 85.5t163 29.5q78 0 148 -26t106 -62v-246q-44 36 -104.5 59.5t-121.5 22.5q-81 -2 -141.5 -66t-60.5 -178v-96h278v-210h-278v-42q0 -168 -108 -260h510v-256h-832z" />
<glyph unicode="&#xa4;" horiz-adv-x="1068" d="M86 194l124 124q-58 87 -58 192q0 104 58 194l-122 122l132 130l128 -126q90 48 186 48q97 0 188 -50l128 128l130 -130l-120 -124q56 -92 56 -192t-56 -192l124 -124l-138 -130l-126 126q-90 -48 -186 -48t-186 48l-126 -126zM354 510q0 -78 52.5 -125t127.5 -47 q76 0 128 46.5t52 125.5t-52 125.5t-128 46.5q-75 0 -127.5 -47t-52.5 -125z" />
<glyph unicode="&#xa5;" horiz-adv-x="1362" d="M20 1340h326l334 -564l336 564h326l-422 -680h198v-160h-294v-90h294v-160h-294v-250h-284v250h-294v160h294v82l-6 8h-288v160h190z" />
<glyph unicode="&#xa6;" horiz-adv-x="520" d="M160 -400v832h200v-832h-200zM160 578v832h200v-832h-200z" />
<glyph unicode="&#xa7;" horiz-adv-x="1096" d="M90 500q0 118 92 214q-92 89 -92 246q0 119 67 213t175 143.5t234 49.5q211 0 374 -106v-274q-91 57 -169 88.5t-171 31.5q-88 0 -154 -37.5t-66 -108.5q0 -26 11.5 -47.5t25 -35.5t46.5 -32t51.5 -26t65.5 -27l164 -68q141 -60 206.5 -140.5t65.5 -191.5 q0 -141 -96 -240q96 -87 96 -222q0 -115 -69 -209t-185 -145.5t-254 -51.5q-111 0 -219 38.5t-195 99.5v274q210 -152 420 -152q88 0 146 35t58 97q0 86 -156 142l-206 80q-147 57 -206.5 146t-59.5 216zM380 494q0 -25 11.5 -47t26.5 -37t46 -32.5t52.5 -27.5t63.5 -28 l96 -40q42 32 42 86q0 96 -156 156l-148 60q-34 -44 -34 -90z" />
<glyph unicode="&#xa8;" horiz-adv-x="1018" d="M166 1306q0 57 41 97.5t99 40.5q56 0 97 -40.5t41 -97.5t-41 -98.5t-97 -41.5q-58 0 -99 41.5t-41 98.5zM586 1306q0 57 41 97.5t99 40.5q56 0 97 -40.5t41 -97.5t-41 -98.5t-97 -41.5q-58 0 -99 41.5t-41 98.5z" />
<glyph unicode="&#xa9;" horiz-adv-x="1748" d="M90 670q0 158 60 301t163.5 247.5t249.5 166t311 61.5t311 -61.5t249.5 -166t163.5 -247.5t60 -301t-60 -301t-163.5 -247.5t-249.5 -166t-311 -61.5t-311 61.5t-249.5 166t-163.5 247.5t-60 301zM284 670q0 -265 163.5 -431.5t426.5 -166.5q264 0 427 166.5t163 431.5 q0 267 -163 433.5t-427 166.5q-263 0 -426.5 -167t-163.5 -433zM488 674q0 176 124 306t306 130q132 0 242 -86v-190q-101 72 -224 72q-95 0 -162.5 -66.5t-67.5 -165.5t65 -164.5t165 -65.5q123 0 224 72v-190q-99 -82 -242 -82q-121 0 -220.5 59.5t-154.5 158t-55 212.5z " />
<glyph unicode="&#xad;" horiz-adv-x="842" d="M120 396v240h602v-240h-602z" />
<glyph unicode="&#xae;" horiz-adv-x="1748" d="M90 670q0 158 60 301t163.5 247.5t249.5 166t311 61.5t311 -61.5t249.5 -166t163.5 -247.5t60 -301t-60 -301t-163.5 -247.5t-249.5 -166t-311 -61.5t-311 61.5t-249.5 166t-163.5 247.5t-60 301zM284 670q0 -265 163.5 -431.5t426.5 -166.5q264 0 427 166.5t163 431.5 q0 267 -163 433.5t-427 166.5q-263 0 -426.5 -167t-163.5 -433zM614 272v794h324q77 0 143.5 -26.5t111.5 -86.5t45 -143q0 -98 -70.5 -160t-171.5 -70l296 -308h-216l-298 326v-326h-164zM778 712q67 -20 136 -20q71 0 112.5 29.5t41.5 82.5q0 54 -41.5 81t-110.5 27h-138 v-200z" />
<glyph unicode="&#xaf;" horiz-adv-x="1100" d="M190 1238v190h720v-190h-720z" />
<glyph unicode="&#xb0;" horiz-adv-x="856" d="M86 1026q0 142 98 243t246 101q147 0 244.5 -101t97.5 -243q0 -145 -97 -245.5t-245 -100.5t-246 101t-98 245zM284 1026q0 -62 42.5 -106t103.5 -44q60 0 102 44t42 106q0 59 -42.5 103.5t-101.5 44.5q-61 0 -103.5 -44.5t-42.5 -103.5z" />
<glyph unicode="&#xb1;" horiz-adv-x="1062" d="M160 0v220h742v-220h-742zM160 568v220h260v220h220v-220h260v-220h-260v-222h-220v222h-260z" />
<glyph unicode="&#xb4;" horiz-adv-x="678" d="M150 1146l210 284h268l-274 -284h-204z" />
<glyph unicode="&#xb6;" horiz-adv-x="1324" d="M80 932q0 86 26.5 155.5t72 116t107.5 78t130 45t144 13.5h564v-1760h-144v1578h-170v-1578h-150v944h-100q-75 0 -143.5 14.5t-130.5 46t-107.5 78t-72 116t-26.5 153.5z" />
<glyph unicode="&#xb7;" horiz-adv-x="640" d="M160 686q0 66 47 113t113 47t113 -47t47 -113t-47 -113t-113 -47t-113 47t-47 113z" />
<glyph unicode="&#xb8;" horiz-adv-x="702" d="M166 -430l14 128q30 -16 45 -23t43.5 -15t55.5 -8q29 0 49.5 15t20.5 41q0 25 -18.5 39.5t-49.5 14.5q-33 0 -66 -18l-40 24l26 236h128l-8 -120q80 6 133 -41t53 -121q0 -92 -62.5 -147t-165.5 -55q-35 0 -82 13.5t-76 36.5z" />
<glyph unicode="&#xbf;" horiz-adv-x="1170" d="M160 12q0 52 20.5 100t53 83.5t71.5 68.5t78 61.5t70.5 55t51 55.5t17.5 58l-2 42h254v-80q0 -40 -36 -83t-87.5 -81.5t-103 -77.5t-87.5 -85t-36 -91q0 -83 65.5 -134.5t170.5 -51.5q211 0 350 162v-264q-65 -67 -165.5 -107.5t-224.5 -40.5q-122 0 -225.5 48t-169 143 t-65.5 219zM478 850q0 64 48 112t112 48q67 0 113.5 -47.5t46.5 -112.5q0 -68 -46 -114t-114 -46q-65 0 -112.5 46.5t-47.5 113.5z" />
<glyph unicode="&#xc0;" horiz-adv-x="1426" d="M20 0l624 1350h138l624 -1350h-326l-102 250h-530l-102 -250h-326zM486 1626l12 134l214 -150l-12 -134zM546 486h336l-168 410z" />
<glyph unicode="&#xc1;" horiz-adv-x="1426" d="M20 0l624 1350h138l624 -1350h-326l-102 250h-530l-102 -250h-326zM546 486h336l-168 410zM576 1476l210 284h268l-274 -284h-204z" />
<glyph unicode="&#xc2;" horiz-adv-x="1426" d="M20 0l624 1350h138l624 -1350h-326l-102 250h-530l-102 -250h-326zM378 1472l260 288h148l260 -288h-214l-120 136l-120 -136h-214zM546 486h336l-168 410z" />
<glyph unicode="&#xc3;" horiz-adv-x="1426" d="M20 0l624 1350h138l624 -1350h-326l-102 250h-530l-102 -250h-326zM370 1486q0 111 66 176.5t166 65.5q47 0 87 -14.5t61.5 -31.5t47 -31.5t48.5 -14.5q33 0 50.5 23t17.5 61h162q0 -111 -66 -176.5t-166 -65.5q-47 0 -86 14.5t-60.5 31.5t-47 31.5t-48.5 14.5 q-32 0 -51 -23.5t-19 -60.5h-162zM546 486h336l-168 410z" />
<glyph unicode="&#xc4;" horiz-adv-x="1426" d="M20 0l624 1350h138l624 -1350h-326l-102 250h-530l-102 -250h-326zM364 1636q0 57 40.5 97.5t97.5 40.5t98.5 -40.5t41.5 -97.5t-41.5 -98.5t-98.5 -41.5t-97.5 41.5t-40.5 98.5zM546 486h336l-168 410zM784 1636q0 57 40.5 97.5t97.5 40.5t98.5 -40.5t41.5 -97.5 t-41.5 -98.5t-98.5 -41.5t-97.5 41.5t-40.5 98.5z" />
<glyph unicode="&#xc5;" horiz-adv-x="1426" d="M20 0l624 1350h138l624 -1350h-326l-102 250h-530l-102 -250h-326zM532 1614q0 72 52.5 123t127.5 51q76 0 127 -50.5t51 -123.5t-51 -123.5t-127 -50.5q-75 0 -127.5 51t-52.5 123zM546 486h336l-168 410zM632 1614q0 -33 23.5 -55.5t56.5 -22.5q32 0 55 22.5t23 55.5 q0 32 -23 55t-55 23q-33 0 -56.5 -23t-23.5 -55z" />
<glyph unicode="&#xc6;" horiz-adv-x="2164" d="M20 0l966 1340h1018v-240h-670v-304h592v-226h-592v-324h670v-246h-948v326h-500l-230 -326h-306zM706 540h350v496z" />
<glyph unicode="&#xc7;" horiz-adv-x="1286" d="M90 670q0 152 57 283.5t153 222t225.5 142.5t272.5 52q228 0 378 -130v-280q-51 39 -77 56.5t-75 43.5t-101.5 37t-116.5 11q-181 0 -306.5 -126t-125.5 -312t125.5 -311t306.5 -125q123 0 213 37t177 105v-270q-144 -127 -372 -136l-6 -86q80 6 133 -41t53 -121 q0 -92 -62.5 -147t-165.5 -55q-35 0 -82 13.5t-76 36.5l14 128q30 -16 45 -23t43.5 -15t55.5 -8q29 0 49.5 15t20.5 41q0 25 -18.5 39.5t-49.5 14.5q-33 0 -66 -18l-40 24l24 208q-126 18 -237 76.5t-193 147t-129 210.5t-47 260z" />
<glyph unicode="&#xc8;" horiz-adv-x="1308" d="M200 0v1340h948v-240h-670v-304h592v-226h-592v-324h670v-246h-948zM448 1626l12 134l214 -150l-12 -134z" />
<glyph unicode="&#xc9;" horiz-adv-x="1308" d="M200 0v1340h948v-240h-670v-304h592v-226h-592v-324h670v-246h-948zM538 1476l210 284h268l-274 -284h-204z" />
<glyph unicode="&#xca;" horiz-adv-x="1308" d="M200 0v1340h948v-240h-670v-304h592v-226h-592v-324h670v-246h-948zM340 1472l260 288h148l260 -288h-214l-120 136l-120 -136h-214z" />
<glyph unicode="&#xcb;" horiz-adv-x="1308" d="M200 0v1340h948v-240h-670v-304h592v-226h-592v-324h670v-246h-948zM328 1636q0 57 40.5 97.5t97.5 40.5t98.5 -40.5t41.5 -97.5t-41.5 -98.5t-98.5 -41.5t-97.5 41.5t-40.5 98.5zM748 1636q0 57 40.5 97.5t97.5 40.5t98.5 -40.5t41.5 -97.5t-41.5 -98.5t-98.5 -41.5 t-97.5 41.5t-40.5 98.5z" />
<glyph unicode="&#xcc;" horiz-adv-x="1110" d="M190 0v250h226v840h-226v250h730v-250h-226v-840h226v-250h-730zM334 1626l12 134l214 -150l-12 -134z" />
<glyph unicode="&#xcd;" horiz-adv-x="1110" d="M190 0v250h226v840h-226v250h730v-250h-226v-840h226v-250h-730zM424 1476l210 284h268l-274 -284h-204z" />
<glyph unicode="&#xce;" horiz-adv-x="1110" d="M190 0v250h226v840h-226v250h730v-250h-226v-840h226v-250h-730zM226 1472l260 288h148l260 -288h-214l-120 136l-120 -136h-214z" />
<glyph unicode="&#xcf;" horiz-adv-x="1110" d="M190 0v250h226v840h-226v250h730v-250h-226v-840h226v-250h-730zM212 1636q0 57 40.5 97.5t97.5 40.5t98.5 -40.5t41.5 -97.5t-41.5 -98.5t-98.5 -41.5t-97.5 41.5t-40.5 98.5zM632 1636q0 57 40.5 97.5t97.5 40.5t98.5 -40.5t41.5 -97.5t-41.5 -98.5t-98.5 -41.5 t-97.5 41.5t-40.5 98.5z" />
<glyph unicode="&#xd0;" horiz-adv-x="1518" d="M38 554v240h162v546h486q118 0 227 -27t203 -82t163.5 -133t109 -186t39.5 -234q0 -148 -48.5 -277t-136 -223.5t-219 -149t-290.5 -54.5q-261 0 -534 54v526h-162zM478 258q110 -22 248 -22q201 0 309.5 119t108.5 313t-132.5 303t-335.5 109h-198v-286h162v-240h-162 v-296z" />
<glyph unicode="&#xd1;" horiz-adv-x="1572" d="M200 0v1350h102l792 -830v820h278v-1350h-102l-792 818v-808h-278zM442 1486q0 111 66 176.5t166 65.5q47 0 87 -14.5t61.5 -31.5t47 -31.5t48.5 -14.5q33 0 50.5 23t17.5 61h162q0 -111 -66 -176.5t-166 -65.5q-47 0 -86 14.5t-60.5 31.5t-47 31.5t-48.5 14.5 q-32 0 -51 -23.5t-19 -60.5h-162z" />
<glyph unicode="&#xd2;" horiz-adv-x="1582" d="M90 670q0 202 95.5 363.5t255.5 249t351 87.5t350.5 -87.5t254.5 -249t95 -363.5t-95 -363.5t-254.5 -249t-350.5 -87.5t-351 87.5t-255.5 249t-95.5 363.5zM374 670q0 -188 119 -312t299 -124t298 124t118 312t-118 313t-298 125t-299 -125t-119 -313zM566 1626l12 134 l214 -150l-12 -134z" />
<glyph unicode="&#xd3;" horiz-adv-x="1582" d="M90 670q0 202 95.5 363.5t255.5 249t351 87.5t350.5 -87.5t254.5 -249t95 -363.5t-95 -363.5t-254.5 -249t-350.5 -87.5t-351 87.5t-255.5 249t-95.5 363.5zM374 670q0 -188 119 -312t299 -124t298 124t118 312t-118 313t-298 125t-299 -125t-119 -313zM656 1476l210 284 h268l-274 -284h-204z" />
<glyph unicode="&#xd4;" horiz-adv-x="1582" d="M90 670q0 202 95.5 363.5t255.5 249t351 87.5t350.5 -87.5t254.5 -249t95 -363.5t-95 -363.5t-254.5 -249t-350.5 -87.5t-351 87.5t-255.5 249t-95.5 363.5zM374 670q0 -188 119 -312t299 -124t298 124t118 312t-118 313t-298 125t-299 -125t-119 -313zM458 1472l260 288 h148l260 -288h-214l-120 136l-120 -136h-214z" />
<glyph unicode="&#xd5;" horiz-adv-x="1582" d="M90 670q0 202 95.5 363.5t255.5 249t351 87.5t350.5 -87.5t254.5 -249t95 -363.5t-95 -363.5t-254.5 -249t-350.5 -87.5t-351 87.5t-255.5 249t-95.5 363.5zM374 670q0 -188 119 -312t299 -124t298 124t118 312t-118 313t-298 125t-299 -125t-119 -313zM450 1486 q0 111 66 176.5t166 65.5q47 0 87 -14.5t61.5 -31.5t47 -31.5t48.5 -14.5q33 0 50.5 23t17.5 61h162q0 -111 -66 -176.5t-166 -65.5q-47 0 -86 14.5t-60.5 31.5t-47 31.5t-48.5 14.5q-32 0 -51 -23.5t-19 -60.5h-162z" />
<glyph unicode="&#xd6;" horiz-adv-x="1582" d="M90 670q0 202 95.5 363.5t255.5 249t351 87.5t350.5 -87.5t254.5 -249t95 -363.5t-95 -363.5t-254.5 -249t-350.5 -87.5t-351 87.5t-255.5 249t-95.5 363.5zM374 670q0 -188 119 -312t299 -124t298 124t118 312t-118 313t-298 125t-299 -125t-119 -313zM444 1636 q0 57 40.5 97.5t97.5 40.5t98.5 -40.5t41.5 -97.5t-41.5 -98.5t-98.5 -41.5t-97.5 41.5t-40.5 98.5zM864 1636q0 57 40.5 97.5t97.5 40.5t98.5 -40.5t41.5 -97.5t-41.5 -98.5t-98.5 -41.5t-97.5 41.5t-40.5 98.5z" />
<glyph unicode="&#xd7;" horiz-adv-x="1100" d="M164 434l192 194l-190 190l170 170l190 -190l190 190l170 -170l-190 -190l190 -192l-170 -170l-190 190l-192 -192z" />
<glyph unicode="&#xd8;" horiz-adv-x="1582" d="M90 670q0 202 95.5 363.5t255.5 249t351 87.5q218 0 394 -114l94 114l134 -100l-102 -122q180 -193 180 -478q0 -202 -95 -363.5t-254.5 -249t-350.5 -87.5q-205 0 -378 104l-86 -104l-128 100l86 104q-196 203 -196 496zM374 670q0 -163 92 -280l546 656q-99 62 -220 62 q-180 0 -299 -125t-119 -313zM590 284q94 -50 202 -50q180 0 298 124t118 312q0 150 -78 262z" />
<glyph unicode="&#xd9;" horiz-adv-x="1518" d="M180 530v814h278v-798q0 -150 81.5 -229t220.5 -77t220.5 79.5t81.5 226.5v798h276v-814q0 -171 -77.5 -299t-207.5 -193.5t-293 -65.5t-293.5 65.5t-208.5 194t-78 298.5zM534 1626l12 134l214 -150l-12 -134z" />
<glyph unicode="&#xda;" horiz-adv-x="1518" d="M180 530v814h278v-798q0 -150 81.5 -229t220.5 -77t220.5 79.5t81.5 226.5v798h276v-814q0 -171 -77.5 -299t-207.5 -193.5t-293 -65.5t-293.5 65.5t-208.5 194t-78 298.5zM624 1476l210 284h268l-274 -284h-204z" />
<glyph unicode="&#xdb;" horiz-adv-x="1518" d="M180 530v814h278v-798q0 -150 81.5 -229t220.5 -77t220.5 79.5t81.5 226.5v798h276v-814q0 -171 -77.5 -299t-207.5 -193.5t-293 -65.5t-293.5 65.5t-208.5 194t-78 298.5zM426 1472l260 288h148l260 -288h-214l-120 136l-120 -136h-214z" />
<glyph unicode="&#xdc;" horiz-adv-x="1518" d="M180 530v814h278v-798q0 -150 81.5 -229t220.5 -77t220.5 79.5t81.5 226.5v798h276v-814q0 -171 -77.5 -299t-207.5 -193.5t-293 -65.5t-293.5 65.5t-208.5 194t-78 298.5zM412 1636q0 57 40.5 97.5t97.5 40.5t98.5 -40.5t41.5 -97.5t-41.5 -98.5t-98.5 -41.5t-97.5 41.5 t-40.5 98.5zM832 1636q0 57 40.5 97.5t97.5 40.5t98.5 -40.5t41.5 -97.5t-41.5 -98.5t-98.5 -41.5t-97.5 41.5t-40.5 98.5z" />
<glyph unicode="&#xdd;" horiz-adv-x="1362" d="M20 1340h326l334 -564l336 564h326l-518 -834v-506h-284v492zM546 1476l210 284h268l-274 -284h-204z" />
<glyph unicode="&#xde;" horiz-adv-x="1318" d="M200 0v1340h254v-228h332q115 0 218.5 -53.5t168.5 -152.5t65 -220q0 -190 -135 -314t-347 -124q-144 0 -302 48v-296h-254zM454 538q112 -60 282 -60q118 0 178 55t60 153q0 87 -75.5 136.5t-192.5 49.5h-252v-334z" />
<glyph unicode="&#xdf;" horiz-adv-x="1352" d="M126 0v1058q0 128 56.5 218.5t144.5 132t197 41.5q114 0 211.5 -45.5t160 -137.5t62.5 -213q0 -60 -25 -112t-55 -82.5t-55 -66.5t-25 -69q0 -16 7 -30t15 -23t27 -19.5t30 -15.5t37.5 -16t37.5 -16l116 -50q110 -46 167 -109t57 -155q0 -94 -57 -166.5t-144.5 -108 t-188.5 -35.5q-193 0 -340 88v210q158 -92 338 -92q71 0 118.5 24t47.5 70q0 62 -166 126l-138 52q-58 23 -99 50t-72 77.5t-31 116.5q0 45 16 86.5t38.5 73t45 61.5t38.5 63t16 66q0 83 -53.5 133.5t-128.5 48.5q-182 -4 -182 -214v-1020h-224z" />
<glyph unicode="&#xe0;" horiz-adv-x="1272" d="M86 498q0 124 37 226.5t100.5 170t149 104.5t183.5 37q82 0 165.5 -38.5t140.5 -101.5v114h254v-1010h-254v170q-49 -87 -133.5 -143.5t-190.5 -56.5q-91 0 -172.5 36t-144 101.5t-99 166.5t-36.5 224zM350 498q0 -116 70 -195t182 -79q106 0 183.5 81.5t76.5 212.5v144 q-119 126 -254 126q-115 0 -186.5 -85.5t-71.5 -204.5zM408 1296l12 134l214 -150l-12 -134z" />
<glyph unicode="&#xe1;" horiz-adv-x="1272" d="M86 498q0 124 37 226.5t100.5 170t149 104.5t183.5 37q82 0 165.5 -38.5t140.5 -101.5v114h254v-1010h-254v170q-49 -87 -133.5 -143.5t-190.5 -56.5q-91 0 -172.5 36t-144 101.5t-99 166.5t-36.5 224zM350 498q0 -116 70 -195t182 -79q106 0 183.5 81.5t76.5 212.5v144 q-119 126 -254 126q-115 0 -186.5 -85.5t-71.5 -204.5zM498 1146l210 284h268l-274 -284h-204z" />
<glyph unicode="&#xe2;" horiz-adv-x="1272" d="M86 498q0 124 37 226.5t100.5 170t149 104.5t183.5 37q82 0 165.5 -38.5t140.5 -101.5v114h254v-1010h-254v170q-49 -87 -133.5 -143.5t-190.5 -56.5q-91 0 -172.5 36t-144 101.5t-99 166.5t-36.5 224zM300 1142l260 288h148l260 -288h-214l-120 136l-120 -136h-214z M350 498q0 -116 70 -195t182 -79q106 0 183.5 81.5t76.5 212.5v144q-119 126 -254 126q-115 0 -186.5 -85.5t-71.5 -204.5z" />
<glyph unicode="&#xe3;" horiz-adv-x="1272" d="M86 498q0 124 37 226.5t100.5 170t149 104.5t183.5 37q82 0 165.5 -38.5t140.5 -101.5v114h254v-1010h-254v170q-49 -87 -133.5 -143.5t-190.5 -56.5q-91 0 -172.5 36t-144 101.5t-99 166.5t-36.5 224zM294 1156q0 111 66 176.5t166 65.5q47 0 87 -14.5t61.5 -31.5 t47 -31.5t48.5 -14.5q33 0 50.5 23t17.5 61h162q0 -111 -66 -176.5t-166 -65.5q-47 0 -86 14.5t-60.5 31.5t-47 31.5t-48.5 14.5q-32 0 -51 -23.5t-19 -60.5h-162zM350 498q0 -116 70 -195t182 -79q106 0 183.5 81.5t76.5 212.5v144q-119 126 -254 126q-115 0 -186.5 -85.5 t-71.5 -204.5z" />
<glyph unicode="&#xe4;" horiz-adv-x="1272" d="M86 498q0 124 37 226.5t100.5 170t149 104.5t183.5 37q82 0 165.5 -38.5t140.5 -101.5v114h254v-1010h-254v170q-49 -87 -133.5 -143.5t-190.5 -56.5q-91 0 -172.5 36t-144 101.5t-99 166.5t-36.5 224zM288 1306q0 57 40.5 97.5t97.5 40.5t98.5 -40.5t41.5 -97.5 t-41.5 -98.5t-98.5 -41.5t-97.5 41.5t-40.5 98.5zM350 498q0 -116 70 -195t182 -79q106 0 183.5 81.5t76.5 212.5v144q-119 126 -254 126q-115 0 -186.5 -85.5t-71.5 -204.5zM708 1306q0 57 40.5 97.5t97.5 40.5t98.5 -40.5t41.5 -97.5t-41.5 -98.5t-98.5 -41.5t-97.5 41.5 t-40.5 98.5z" />
<glyph unicode="&#xe5;" horiz-adv-x="1272" d="M86 498q0 124 37 226.5t100.5 170t149 104.5t183.5 37q82 0 165.5 -38.5t140.5 -101.5v114h254v-1010h-254v170q-49 -87 -133.5 -143.5t-190.5 -56.5q-91 0 -172.5 36t-144 101.5t-99 166.5t-36.5 224zM350 498q0 -116 70 -195t182 -79q106 0 183.5 81.5t76.5 212.5v144 q-119 126 -254 126q-115 0 -186.5 -85.5t-71.5 -204.5zM454 1284q0 72 52.5 123t127.5 51q76 0 127 -50.5t51 -123.5t-51 -123.5t-127 -50.5q-75 0 -127.5 51t-52.5 123zM554 1284q0 -33 23.5 -55.5t56.5 -22.5q32 0 55 22.5t23 55.5q0 32 -23 55t-55 23q-33 0 -56.5 -23 t-23.5 -55z" />
<glyph unicode="&#xe6;" horiz-adv-x="2008" d="M86 498q0 124 37 226.5t100.5 170t149 104.5t183.5 37q82 0 165.5 -38.5t140.5 -101.5v114h254v-108q140 134 340 134q220 0 348 -139t128 -363v-106h-732q21 -104 101 -166t195 -62q165 0 308 92v-230q-123 -92 -318 -92q-215 0 -370 136v-106h-254v170 q-49 -87 -133.5 -143.5t-190.5 -56.5q-91 0 -172.5 36t-144 101.5t-99 166.5t-36.5 224zM350 498q0 -116 70 -195t182 -79q106 0 183.5 81.5t76.5 212.5v144q-119 126 -254 126q-115 0 -186.5 -85.5t-71.5 -204.5zM1204 594h484q-7 104 -76 162t-162 58q-95 0 -159 -59 t-87 -161z" />
<glyph unicode="&#xe7;" horiz-adv-x="984" d="M86 500q0 105 40.5 203t110 171.5t169 117.5t210.5 44q169 0 298 -106v-234q-126 90 -276 90q-117 0 -199.5 -82t-82.5 -204q0 -123 79.5 -203.5t202.5 -80.5q153 0 276 88v-232q-107 -95 -272 -102l-6 -86q80 6 133 -41t53 -121q0 -92 -62.5 -147t-165.5 -55 q-35 0 -82 13.5t-76 36.5l14 128q30 -16 45 -23t43.5 -15t55.5 -8q29 0 49.5 15t20.5 41q0 25 -18.5 39.5t-49.5 14.5q-33 0 -66 -18l-40 24l24 212q-188 36 -308 183.5t-120 336.5z" />
<glyph unicode="&#xe8;" d="M86 494q0 146 65.5 270t183.5 198t263 74q220 0 348 -139t128 -363v-106h-732q21 -104 101 -166t195 -62q165 0 308 92v-230q-123 -92 -318 -92q-148 0 -272 67t-197 187.5t-73 269.5zM346 594h484q-7 104 -76 162t-162 58q-95 0 -159 -59t-87 -161zM382 1296l12 134 l214 -150l-12 -134z" />
<glyph unicode="&#xe9;" d="M86 494q0 146 65.5 270t183.5 198t263 74q220 0 348 -139t128 -363v-106h-732q21 -104 101 -166t195 -62q165 0 308 92v-230q-123 -92 -318 -92q-148 0 -272 67t-197 187.5t-73 269.5zM346 594h484q-7 104 -76 162t-162 58q-95 0 -159 -59t-87 -161zM472 1146l210 284 h268l-274 -284h-204z" />
<glyph unicode="&#xea;" d="M86 494q0 146 65.5 270t183.5 198t263 74q220 0 348 -139t128 -363v-106h-732q21 -104 101 -166t195 -62q165 0 308 92v-230q-123 -92 -318 -92q-148 0 -272 67t-197 187.5t-73 269.5zM274 1142l260 288h148l260 -288h-214l-120 136l-120 -136h-214zM346 594h484 q-7 104 -76 162t-162 58q-95 0 -159 -59t-87 -161z" />
<glyph unicode="&#xeb;" d="M86 494q0 146 65.5 270t183.5 198t263 74q220 0 348 -139t128 -363v-106h-732q21 -104 101 -166t195 -62q165 0 308 92v-230q-123 -92 -318 -92q-148 0 -272 67t-197 187.5t-73 269.5zM260 1306q0 57 40.5 97.5t97.5 40.5t98.5 -40.5t41.5 -97.5t-41.5 -98.5t-98.5 -41.5 t-97.5 41.5t-40.5 98.5zM346 594h484q-7 104 -76 162t-162 58q-95 0 -159 -59t-87 -161zM680 1306q0 57 40.5 97.5t97.5 40.5t98.5 -40.5t41.5 -97.5t-41.5 -98.5t-98.5 -41.5t-97.5 41.5t-40.5 98.5z" />
<glyph unicode="&#xec;" horiz-adv-x="588" d="M116 1296l12 134l214 -150l-12 -134zM122 794v216h416v-1010h-254v794h-162z" />
<glyph unicode="&#xed;" horiz-adv-x="584" d="M94 794v216h416v-1010h-254v794h-162zM176 1146l210 284h268l-274 -284h-204z" />
<glyph unicode="&#xee;" horiz-adv-x="614" d="M-20 1142l260 288h148l260 -288h-214l-120 136l-120 -136h-214zM152 794v216h416v-1010h-254v794h-162z" />
<glyph unicode="&#xef;" horiz-adv-x="614" d="M-36 1306q0 57 41.5 97.5t98.5 40.5t98.5 -40.5t41.5 -97.5t-41.5 -98.5t-98.5 -41.5t-98.5 41.5t-41.5 98.5zM122 794v216h416v-1010h-254v794h-162zM388 1306q0 57 40.5 97.5t97.5 40.5t98.5 -40.5t41.5 -97.5t-41.5 -98.5t-98.5 -41.5t-97.5 41.5t-40.5 98.5z" />
<glyph unicode="&#xf0;" horiz-adv-x="1226" d="M86 500q0 146 70.5 263.5t189.5 182t260 64.5q156 0 288 -150q-38 114 -160 250l-160 -78l-64 120l120 60q-52 46 -104 82l130 142q93 -73 154 -134l178 88l64 -124l-144 -70q232 -285 232 -628q0 -132 -40.5 -244.5t-111 -189.5t-166.5 -120.5t-206 -43.5 q-145 0 -266.5 69.5t-192.5 191.5t-71 269zM316 500q0 -131 85 -217.5t215 -86.5t215 86.5t85 217.5t-85 218.5t-215 87.5t-215 -87.5t-85 -218.5z" />
<glyph unicode="&#xf1;" horiz-adv-x="1214" d="M156 0v1010h254v-144q54 71 133 120.5t173 49.5q161 0 261.5 -108t100.5 -308v-620h-254l-2 586q0 100 -48.5 151t-135.5 51q-121 0 -228 -148v-640h-254zM298 1158q0 111 66 176.5t166 65.5q47 0 87 -14.5t61.5 -31.5t47 -31.5t48.5 -14.5q33 0 50.5 23t17.5 61h162 q0 -111 -66 -176.5t-166 -65.5q-47 0 -86 14.5t-60.5 31.5t-47 31.5t-48.5 14.5q-32 0 -51 -23.5t-19 -60.5h-162z" />
<glyph unicode="&#xf2;" horiz-adv-x="1252" d="M86 502q0 147 73.5 270.5t197.5 193.5t269 70t269.5 -70t198.5 -193.5t74 -270.5q0 -146 -74 -269t-198.5 -193t-269.5 -70t-269 70t-197.5 193t-73.5 269zM356 502q0 -133 78.5 -209.5t191.5 -76.5q114 0 193 77t79 209q0 133 -79.5 210.5t-192.5 77.5t-191.5 -77.5 t-78.5 -210.5zM400 1296l12 134l214 -150l-12 -134z" />
<glyph unicode="&#xf3;" horiz-adv-x="1252" d="M86 502q0 147 73.5 270.5t197.5 193.5t269 70t269.5 -70t198.5 -193.5t74 -270.5q0 -146 -74 -269t-198.5 -193t-269.5 -70t-269 70t-197.5 193t-73.5 269zM356 502q0 -133 78.5 -209.5t191.5 -76.5q114 0 193 77t79 209q0 133 -79.5 210.5t-192.5 77.5t-191.5 -77.5 t-78.5 -210.5zM490 1146l210 284h268l-274 -284h-204z" />
<glyph unicode="&#xf4;" horiz-adv-x="1252" d="M86 502q0 147 73.5 270.5t197.5 193.5t269 70t269.5 -70t198.5 -193.5t74 -270.5q0 -146 -74 -269t-198.5 -193t-269.5 -70t-269 70t-197.5 193t-73.5 269zM292 1142l260 288h148l260 -288h-214l-120 136l-120 -136h-214zM356 502q0 -133 78.5 -209.5t191.5 -76.5 q114 0 193 77t79 209q0 133 -79.5 210.5t-192.5 77.5t-191.5 -77.5t-78.5 -210.5z" />
<glyph unicode="&#xf5;" horiz-adv-x="1252" d="M86 502q0 147 73.5 270.5t197.5 193.5t269 70t269.5 -70t198.5 -193.5t74 -270.5q0 -146 -74 -269t-198.5 -193t-269.5 -70t-269 70t-197.5 193t-73.5 269zM286 1156q0 111 66 176.5t166 65.5q47 0 87 -14.5t61.5 -31.5t47 -31.5t48.5 -14.5q33 0 50.5 23t17.5 61h162 q0 -111 -66 -176.5t-166 -65.5q-47 0 -86 14.5t-60.5 31.5t-47 31.5t-48.5 14.5q-32 0 -51 -23.5t-19 -60.5h-162zM356 502q0 -133 78.5 -209.5t191.5 -76.5q114 0 193 77t79 209q0 133 -79.5 210.5t-192.5 77.5t-191.5 -77.5t-78.5 -210.5z" />
<glyph unicode="&#xf6;" horiz-adv-x="1252" d="M86 502q0 147 73.5 270.5t197.5 193.5t269 70t269.5 -70t198.5 -193.5t74 -270.5q0 -146 -74 -269t-198.5 -193t-269.5 -70t-269 70t-197.5 193t-73.5 269zM280 1306q0 57 40.5 97.5t97.5 40.5t98.5 -40.5t41.5 -97.5t-41.5 -98.5t-98.5 -41.5t-97.5 41.5t-40.5 98.5z M356 502q0 -133 78.5 -209.5t191.5 -76.5q114 0 193 77t79 209q0 133 -79.5 210.5t-192.5 77.5t-191.5 -77.5t-78.5 -210.5zM700 1306q0 57 40.5 97.5t97.5 40.5t98.5 -40.5t41.5 -97.5t-41.5 -98.5t-98.5 -41.5t-97.5 41.5t-40.5 98.5z" />
<glyph unicode="&#xf7;" horiz-adv-x="1102" d="M160 506v240h782v-240h-782zM404 240q0 62 43 105t105 43q60 0 104 -43.5t44 -104.5q0 -60 -44 -104t-104 -44q-61 0 -104.5 44t-43.5 104zM404 1008q0 62 43 105t105 43q60 0 104 -43.5t44 -104.5q0 -60 -44 -104t-104 -44q-61 0 -104.5 44t-43.5 104z" />
<glyph unicode="&#xf8;" horiz-adv-x="1212" d="M86 502q0 147 73.5 270.5t197.5 193.5t269 70q161 0 296 -88l84 90l124 -100l-88 -94q126 -149 126 -342q0 -146 -74 -269t-198.5 -193t-269.5 -70q-173 0 -312 98l-102 -108l-118 100l106 114q-114 142 -114 328zM356 502q0 -74 26 -132l366 392q-56 28 -122 28 q-113 0 -191.5 -77.5t-78.5 -210.5zM486 252q63 -36 140 -36q114 0 193 77t79 209q0 83 -36 152z" />
<glyph unicode="&#xf9;" horiz-adv-x="1182" d="M136 408v602h256l2 -556q0 -114 53.5 -174t144.5 -60t144.5 60t53.5 174v556h258v-602q0 -199 -128 -316.5t-328 -117.5t-328 117.5t-128 316.5zM378 1296l12 134l214 -150l-12 -134z" />
<glyph unicode="&#xfa;" horiz-adv-x="1182" d="M136 408v602h256l2 -556q0 -114 53.5 -174t144.5 -60t144.5 60t53.5 174v556h258v-602q0 -199 -128 -316.5t-328 -117.5t-328 117.5t-128 316.5zM468 1146l210 284h268l-274 -284h-204z" />
<glyph unicode="&#xfb;" horiz-adv-x="1182" d="M136 408v602h256l2 -556q0 -114 53.5 -174t144.5 -60t144.5 60t53.5 174v556h258v-602q0 -199 -128 -316.5t-328 -117.5t-328 117.5t-128 316.5zM270 1142l260 288h148l260 -288h-214l-120 136l-120 -136h-214z" />
<glyph unicode="&#xfc;" horiz-adv-x="1182" d="M136 408v602h256l2 -556q0 -114 53.5 -174t144.5 -60t144.5 60t53.5 174v556h258v-602q0 -199 -128 -316.5t-328 -117.5t-328 117.5t-128 316.5zM258 1306q0 57 40.5 97.5t97.5 40.5t98.5 -40.5t41.5 -97.5t-41.5 -98.5t-98.5 -41.5t-97.5 41.5t-40.5 98.5zM678 1306 q0 57 40.5 97.5t97.5 40.5t98.5 -40.5t41.5 -97.5t-41.5 -98.5t-98.5 -41.5t-97.5 41.5t-40.5 98.5z" />
<glyph unicode="&#xfd;" horiz-adv-x="1194" d="M20 1010h296l288 -644l280 644h290l-734 -1490h-288l304 554zM456 1146l210 284h268l-274 -284h-204z" />
<glyph unicode="&#xfe;" horiz-adv-x="1272" d="M156 -450v1890h254v-600q48 87 132 141.5t192 54.5q92 0 173 -35t143.5 -99.5t99 -165.5t36.5 -224q0 -245 -134.5 -391.5t-335.5 -146.5q-82 0 -165.5 38.5t-140.5 101.5v-564h-254zM410 348q117 -124 254 -124q115 0 186.5 85.5t71.5 202.5q0 116 -70 192t-182 76 q-106 0 -183.5 -78.5t-76.5 -207.5v-146z" />
<glyph unicode="&#xff;" horiz-adv-x="1194" d="M20 1010h296l288 -644l280 644h290l-734 -1490h-288l304 554zM244 1306q0 57 40.5 97.5t97.5 40.5t98.5 -40.5t41.5 -97.5t-41.5 -98.5t-98.5 -41.5t-97.5 41.5t-40.5 98.5zM664 1306q0 57 40.5 97.5t97.5 40.5t98.5 -40.5t41.5 -97.5t-41.5 -98.5t-98.5 -41.5 t-97.5 41.5t-40.5 98.5z" />
<glyph unicode="&#x152;" horiz-adv-x="2076" d="M90 670q0 188 96 342.5t258 241t352 86.5h1120v-240h-670v-304h592v-226h-592v-324h670v-246h-1120q-190 0 -352 86.5t-258 241t-96 342.5zM354 670q0 -199 125.5 -319.5t316.5 -120.5h172v870h-172q-193 0 -317.5 -116t-124.5 -314z" />
<glyph unicode="&#x153;" horiz-adv-x="1986" d="M86 502q0 147 73.5 270.5t197.5 193.5t269 70q121 0 230.5 -51t185.5 -141q71 90 172 141t220 51q220 0 349 -139t129 -363v-106h-734q21 -104 101 -166t195 -62q170 0 308 92v-230q-48 -37 -130.5 -64.5t-187.5 -27.5q-126 0 -236 50t-186 140q-76 -88 -185.5 -139 t-230.5 -51q-145 0 -269 70t-197.5 193t-73.5 269zM356 502q0 -133 78.5 -209.5t191.5 -76.5q114 0 193 77t79 209q0 133 -79.5 210.5t-192.5 77.5t-191.5 -77.5t-78.5 -210.5zM1182 594h486q-7 104 -76.5 162t-161.5 58q-95 0 -160 -59t-88 -161z" />
<glyph unicode="&#x178;" horiz-adv-x="1362" d="M20 1340h326l334 -564l336 564h326l-518 -834v-506h-284v492zM336 1636q0 57 40.5 97.5t97.5 40.5t98.5 -40.5t41.5 -97.5t-41.5 -98.5t-98.5 -41.5t-97.5 41.5t-40.5 98.5zM756 1636q0 57 40.5 97.5t97.5 40.5t98.5 -40.5t41.5 -97.5t-41.5 -98.5t-98.5 -41.5 t-97.5 41.5t-40.5 98.5z" />
<glyph unicode="&#x2c6;" horiz-adv-x="988" d="M160 1142l260 288h148l260 -288h-214l-120 136l-120 -136h-214z" />
<glyph unicode="&#x2dc;" horiz-adv-x="920" d="M120 1172q0 111 66 176.5t166 65.5q47 0 87 -14.5t61.5 -31.5t47 -31.5t48.5 -14.5q33 0 50.5 23t17.5 61h162q0 -111 -66 -176.5t-166 -65.5q-47 0 -86 14.5t-60.5 31.5t-47 31.5t-48.5 14.5q-32 0 -51 -23.5t-19 -60.5h-162z" />
<glyph unicode="&#x2000;" horiz-adv-x="894" />
<glyph unicode="&#x2001;" horiz-adv-x="1788" />
<glyph unicode="&#x2002;" horiz-adv-x="894" />
<glyph unicode="&#x2003;" horiz-adv-x="1788" />
<glyph unicode="&#x2004;" horiz-adv-x="596" />
<glyph unicode="&#x2005;" horiz-adv-x="447" />
<glyph unicode="&#x2006;" horiz-adv-x="298" />
<glyph unicode="&#x2007;" horiz-adv-x="298" />
<glyph unicode="&#x2008;" horiz-adv-x="223" />
<glyph unicode="&#x2009;" horiz-adv-x="357" />
<glyph unicode="&#x200a;" horiz-adv-x="99" />
<glyph unicode="&#x2010;" horiz-adv-x="842" d="M120 396v240h602v-240h-602z" />
<glyph unicode="&#x2011;" horiz-adv-x="842" d="M120 396v240h602v-240h-602z" />
<glyph unicode="&#x2012;" horiz-adv-x="842" d="M120 396v240h602v-240h-602z" />
<glyph unicode="&#x2013;" horiz-adv-x="1210" d="M120 396v240h980v-240h-980z" />
<glyph unicode="&#x2014;" horiz-adv-x="1776" d="M120 396v240h1536v-240h-1536z" />
<glyph unicode="&#x2018;" horiz-adv-x="524" d="M80 882l220 494l184 -32l-180 -518z" />
<glyph unicode="&#x2019;" horiz-adv-x="504" d="M50 858l180 518l224 -56l-220 -494z" />
<glyph unicode="&#x201a;" horiz-adv-x="692" d="M110 -298l160 528l224 -56l-200 -504z" />
<glyph unicode="&#x201c;" horiz-adv-x="944" d="M80 918l220 494l184 -32l-180 -518zM480 918l220 494l184 -32l-180 -518z" />
<glyph unicode="&#x201d;" horiz-adv-x="904" d="M50 884l180 518l224 -56l-220 -494zM450 884l180 518l224 -56l-220 -494z" />
<glyph unicode="&#x201e;" horiz-adv-x="652" d="M90 -298l160 528l224 -56l-200 -504z" />
<glyph unicode="&#x2022;" horiz-adv-x="902" d="M160 606q0 121 85 206.5t205 85.5t206 -85.5t86 -206.5q0 -118 -86 -204t-206 -86q-119 0 -204.5 86t-85.5 204z" />
<glyph unicode="&#x2026;" horiz-adv-x="1640" d="M120 124q0 66 47 113t113 47t113 -47t47 -113t-47 -114t-113 -48t-113 48t-47 114zM660 124q0 66 47 113t113 47t113 -47t47 -113t-47 -114t-113 -48t-113 48t-47 114zM1200 124q0 66 47 113t113 47t113 -47t47 -113t-47 -114t-113 -48t-113 48t-47 114z" />
<glyph unicode="&#x202f;" horiz-adv-x="357" />
<glyph unicode="&#x205f;" horiz-adv-x="447" />
<glyph unicode="&#x20ac;" horiz-adv-x="1244" d="M90 458v160h138l-2 52v38h-136v160h158q54 227 217.5 364.5t378.5 137.5q84 0 173.5 -33.5t136.5 -80.5v-276q-136 128 -282 128q-115 0 -201 -65t-127 -175h418v-160h-450l-2 -38q0 -36 2 -52h450v-160h-412q43 -104 126.5 -164t195.5 -60q153 0 272 102v-266 q-128 -100 -300 -100q-212 0 -373.5 133t-218.5 355h-162z" />
<glyph unicode="&#x2122;" horiz-adv-x="1062" d="M80 1238v104h400v-104h-138v-304h-124v304h-138zM538 934v406h74l152 -204l146 204h72v-406h-126v168l-74 -100h-36l-82 100v-168h-126z" />
<glyph unicode="&#x25fc;" horiz-adv-x="1010" d="M0 0v1010h1010v-1010h-1010z" />
</font>
</defs>
</svg>
